<svg
  xmlns="http://www.w3.org/2000/svg"
  viewBox="0 0 512 512"
  role="img"
  aria-label="PL favicon"
>
  <style>
    path {
      fill: #111111;
    }

    @media (prefers-color-scheme: dark) {
      path {
        fill: #ffffff;
      }
    }
  </style>
  <path
    fill-rule="evenodd"
    clip-rule="evenodd"
    d="M395.873 70C424.662 70 448 93.3481 448 122.15V294.243C448 323.044 424.662 346.393 395.873 346.393H357.647C344.212 346.393 333.321 357.288 333.321 370.729V389.85C333.321 418.652 309.983 442 281.195 442H116.127C87.3379 442 64 418.652 64 389.85V122.15C64 93.3481 87.3379 70 116.127 70H395.873ZM116.127 97.8131C102.692 97.8131 91.8009 108.709 91.8009 122.15V389.85C91.8009 403.291 102.692 414.187 116.127 414.187H281.195C294.629 414.187 305.52 403.291 305.52 389.85V346.393C305.52 332.952 294.629 322.056 281.195 322.056H211.692C198.258 322.056 187.367 311.16 187.367 297.72V122.15C187.367 108.709 176.475 97.8131 163.041 97.8131H116.127Z"
  />
</svg>
