<svg
  xmlns="http://www.w3.org/2000/svg"
  viewBox="0 0 512 512"
  role="img"
  aria-label="PL favicon"
>
  <style>
    path {
      fill: #111111;
    }

    @media (prefers-color-scheme: dark) {
      path {
        fill: #ffffff;
      }
    }
  </style>
  <path
    fill-rule="evenodd"
    clip-rule="evenodd"
    d="M407.468 70C426.54 70 442 85.4603 442 104.532V283.468C442 302.54 426.54 318 407.468 318H352.532C333.46 318 318 333.46 318 352.532V407.468C318 426.54 302.54 442 283.468 442H104.532C85.4603 442 70 426.54 70 407.468V104.532C70 85.4603 85.4603 70 104.532 70H407.468ZM104.532 91.9747C97.5966 91.9747 91.9747 97.5966 91.9747 104.532V407.468C91.9747 414.403 97.5966 420.025 104.532 420.025H283.468C290.403 420.025 296.025 414.403 296.025 407.468V330.557C296.025 323.622 290.403 318 283.468 318H206.557C199.622 318 194 312.378 194 305.443V104.532C194 97.5966 188.378 91.9747 181.443 91.9747H104.532Z"
  />
</svg>
